<?xml version="1.0" encoding="UTF-8"?>
<svg width="16px" height="38px" viewBox="0 0 16 38" version="1.1" xmlns="http://www.w3.org/2000/svg" xmlns:xlink="http://www.w3.org/1999/xlink">
    <!-- Generator: Sketch 50.2 (55047) - http://www.bohemiancoding.com/sketch -->
    <title>bottle</title>
    <desc>Created with Sketch.</desc>
    <defs></defs>
    <g id="Vivid.JS" stroke="none" stroke-width="1" fill="none" fill-rule="evenodd">
        <g id="Vivid-Icons" transform="translate(-911.000000, -720.000000)">
            <g id="Icons" transform="translate(37.000000, 169.000000)">
                <g id="bottle" transform="translate(858.000000, 546.000000)">
                    <g transform="translate(16.000000, 5.000000)" id="Shape">
                        <path d="M4,3 L4,0 L12,0 L12,3 L4,3 Z M0,38 L0,20.187 C0,9.587 8,10.008 8,10.008 C8,10.008 16,9.438 16,20.187 L16,38 L0,38 Z" fill="#FF6E6E"></path>
                        <path d="M5,11 L5,3 L11,3 L11,11 L5,11 Z M9,20 L16,20 L16,32 L9,32 L9,20 Z" fill="#0C0058"></path>
                    </g>
                </g>
            </g>
        </g>
    </g>
</svg>