<?xml version="1.0" encoding="UTF-8"?>
<svg width="33px" height="35px" viewBox="0 0 33 35" version="1.1" xmlns="http://www.w3.org/2000/svg" xmlns:xlink="http://www.w3.org/1999/xlink">
    <!-- Generator: Sketch 50.2 (55047) - http://www.bohemiancoding.com/sketch -->
    <title>building</title>
    <desc>Created with Sketch.</desc>
    <defs></defs>
    <g id="Vivid.JS" stroke="none" stroke-width="1" fill="none" fill-rule="evenodd">
        <g id="Vivid-Icons" transform="translate(-435.000000, -488.000000)">
            <g id="Icons" transform="translate(37.000000, 169.000000)">
                <g id="building" transform="translate(390.000000, 312.000000)">
                    <g transform="translate(8.000000, 7.000000)" id="Shape">
                        <polygon fill="#FF6E6E" points="33 35 0 35 0 0 17 0 17 10.99 33 10.99"></polygon>
                        <path d="M27.012,32 L27.012,29.01 L30.012,29.01 L30.012,32 L27.012,32 Z M27.012,23.99 L30.012,23.99 L30.012,27.008 L27.012,27.008 L27.012,23.99 Z M27.012,18.998 L30.012,18.998 L30.012,21.987 L27.012,21.987 L27.012,19 L27.012,18.998 Z M27.012,14.005 L30.012,14.005 L30.012,17 L27.012,17 L27.012,14.01 L27.012,14.005 Z M22.012,29.01 L25.012,29.01 L25.012,32 L22.012,32 L22.012,29.01 Z M22.012,23.989 L25.012,23.989 L25.012,27.007 L22.012,27.007 L22.012,23.99 L22.012,23.989 Z M22.012,18.997 L25.012,18.997 L25.012,21.986 L22.012,21.986 L22.012,19 L22.012,18.997 Z M22.012,14.004 L25.012,14.004 L25.012,17 L22.012,17 L22.012,14.01 L22.012,14.004 Z M17,11 L19,11 L19,35 L17,35 L17,11 Z M3.994,30 L13.006,30 L13.006,32.015 L3.994,32.015 L3.994,30 Z M3.994,25 L13.006,25 L13.006,27.015 L3.994,27.015 L3.994,24.994 L3.994,25 Z M3.994,20 L13.006,20 L13.006,22.015 L3.994,22.015 L3.994,19.992 L3.994,20 Z M3.994,15 L13.006,15 L13.006,17.015 L3.994,17.015 L3.994,14.991 L3.994,15 Z M3.994,10 L13.006,10 L13.006,12 L3.994,12 L3.994,9.989 L3.994,10 Z M3.994,5 L13.006,5 L13.006,7 L3.994,7 L3.994,4.987 L3.994,5 Z" fill="#0C0058"></path>
                    </g>
                </g>
            </g>
        </g>
    </g>
</svg>