<?xml version="1.0" encoding="UTF-8"?>
<svg width="35px" height="33px" viewBox="0 0 35 33" version="1.1" xmlns="http://www.w3.org/2000/svg" xmlns:xlink="http://www.w3.org/1999/xlink">
    <!-- Generator: Sketch 50.2 (55047) - http://www.bohemiancoding.com/sketch -->
    <title>bullhorn</title>
    <desc>Created with Sketch.</desc>
    <defs></defs>
    <g id="Vivid.JS" stroke="none" stroke-width="1" fill="none" fill-rule="evenodd">
        <g id="Vivid-Icons" transform="translate(-434.000000, -333.000000)">
            <g id="Icons" transform="translate(37.000000, 169.000000)">
                <g id="bullhorn" transform="translate(390.000000, 156.000000)">
                    <g transform="translate(7.000000, 8.000000)" id="Shape">
                        <path d="M4.248,24.648 L5.607,32.014 L11.945,32 L10,24 L4.248,24.648 Z M11,24 L8,14 L26.518,0 L33,27 L11,24 Z" fill="#FF6E6E"></path>
                        <path d="M14,9 L21,4 L26,26 L18,25 L14,9 Z M1,22 C0.367,19.459 1.638,16.681 4,16 L8,14 L11,24 L7,25 C4.638,25.681 1.633,24.542 1,22 Z M30.82,17.917 L28.5,8.255 C28.9838509,8.0931262 29.489839,8.00710822 30,8 C32.5993891,7.99745729 34.765702,9.99008188 34.979905,12.5806315 C35.1941079,15.1711811 33.3845039,17.4925595 30.82,17.917 Z" fill="#0C0058"></path>
                    </g>
                </g>
            </g>
        </g>
    </g>
</svg>