<?xml version="1.0" encoding="UTF-8"?>
<svg width="27px" height="38px" viewBox="0 0 27 38" version="1.1" xmlns="http://www.w3.org/2000/svg" xmlns:xlink="http://www.w3.org/1999/xlink">
    <!-- Generator: Sketch 50.2 (55047) - http://www.bohemiancoding.com/sketch -->
    <title>calculator</title>
    <desc>Created with Sketch.</desc>
    <defs></defs>
    <g id="Vivid.JS" stroke="none" stroke-width="1" fill="none" fill-rule="evenodd">
        <g id="Vivid-Icons" transform="translate(-594.000000, -642.000000)">
            <g id="Icons" transform="translate(37.000000, 169.000000)">
                <g id="calculator" transform="translate(546.000000, 468.000000)">
                    <g transform="translate(11.000000, 5.000000)" id="Shape">
                        <polygon fill="#FF6E6E" points="27 38 0 38 0 0 27 0"></polygon>
                        <path d="M4,4 L23,4 L23,11 L4,11 L4,4 Z M6.5,15 C7.88071187,15 9,16.1192881 9,17.5 C9,18.8807119 7.88071187,20 6.5,20 C5.11928813,20 4,18.8807119 4,17.5 C4,16.1192881 5.11928813,15 6.5,15 Z M13.5,15 C14.8807119,15 16,16.1192881 16,17.5 C16,18.8807119 14.8807119,20 13.5,20 C12.1192881,20 11,18.8807119 11,17.5 C11,16.1192881 12.1192881,15 13.5,15 Z M20.5,15 C21.8807119,15 23,16.1192881 23,17.5 C23,18.8807119 21.8807119,20 20.5,20 C19.1192881,20 18,18.8807119 18,17.5 C18,16.1192881 19.1192881,15 20.5,15 Z M6.5,22 C7.88071187,22 9,23.1192881 9,24.5 C9,25.8807119 7.88071187,27 6.5,27 C5.11928813,27 4,25.8807119 4,24.5 C4,23.1192881 5.11928813,22 6.5,22 Z M13.5,22 C14.8807119,22 16,23.1192881 16,24.5 C16,25.8807119 14.8807119,27 13.5,27 C12.1192881,27 11,25.8807119 11,24.5 C11,23.1192881 12.1192881,22 13.5,22 Z M20.5,22 C21.8807119,22 23,23.1192881 23,24.5 C23,25.8807119 21.8807119,27 20.5,27 C19.1192881,27 18,25.8807119 18,24.5 C18,23.1192881 19.1192881,22 20.5,22 Z M6.5,29 C7.88071187,29 9,30.1192881 9,31.5 C9,32.8807119 7.88071187,34 6.5,34 C5.11928813,34 4,32.8807119 4,31.5 C4,30.1192881 5.11928813,29 6.5,29 Z M13.5,29 C14.8807119,29 16,30.1192881 16,31.5 C16,32.8807119 14.8807119,34 13.5,34 C12.1192881,34 11,32.8807119 11,31.5 C11,30.1192881 12.1192881,29 13.5,29 Z M20.5,29 C21.8807119,29 23,30.1192881 23,31.5 C23,32.8807119 21.8807119,34 20.5,34 C19.1192881,34 18,32.8807119 18,31.5 C18,30.1192881 19.1192881,29 20.5,29 Z" fill="#0C0058"></path>
                    </g>
                </g>
            </g>
        </g>
    </g>
</svg>