<?xml version="1.0" encoding="UTF-8"?>
<svg width="35px" height="37px" viewBox="0 0 35 37" version="1.1" xmlns="http://www.w3.org/2000/svg" xmlns:xlink="http://www.w3.org/1999/xlink">
    <!-- Generator: Sketch 50.2 (55047) - http://www.bohemiancoding.com/sketch -->
    <title>calendar</title>
    <desc>Created with Sketch.</desc>
    <defs></defs>
    <g id="Vivid.JS" stroke="none" stroke-width="1" fill="none" fill-rule="evenodd">
        <g id="Vivid-Icons" transform="translate(-122.000000, -409.000000)">
            <g id="Icons" transform="translate(37.000000, 169.000000)">
                <g id="calendar" transform="translate(78.000000, 234.000000)">
                    <g transform="translate(7.000000, 6.000000)" id="Shape">
                        <polygon fill="#FF6E6E" points="0 37 0 3.009 35 3.009 35 37"></polygon>
                        <path d="M3.007,13.013 L7.991,13.013 L7.991,18 L3.007,18 L3.007,13.013 Z M10.998,13.013 L16.012,13.013 L16.012,18 L11,18 L11,13.013 L10.998,13.013 Z M18.988,13.013 L24,13.013 L24,18 L18.988,18 L18.988,13.013 Z M3.007,21.013 L7.991,21.013 L7.991,26 L3.007,26 L3.007,21.009 L3.007,21.013 Z M10.998,21.013 L16.012,21.013 L16.012,26 L11,26 L11,21.009 L10.998,21.013 Z M18.988,21.013 L24,21.013 L24,26 L18.988,26 L18.988,21.009 L18.988,21.013 Z M3.007,29 L7.991,29 L7.991,33.987 L3.007,33.987 L3.007,29 Z M11,29 L16.014,29 L16.014,33.987 L11,33.987 L11,29 Z M18.99,29 L24,29 L24,33.987 L18.988,33.987 L18.988,29 L18.99,29 Z M27.011,13.009 L31.994,13.009 L31.994,18 L27.009,18 L27.009,13.013 L27.011,13.009 Z M27.011,21.009 L31.994,21.009 L31.994,26 L27.009,26 L27.009,21.009 L27.011,21.009 Z M27.011,29.009 L31.994,29.009 L31.994,33.996 L27.009,33.996 L27.009,29 L27.011,29.009 Z M0,3 L35,3 L35,10 L0,10 L0,3 Z" fill="#0C0058"></path>
                        <path d="M8,0 L12,0 L12,6 L8,6 L8,0 Z M23,0 L27,0 L27,6 L23,6 L23,0 Z" fill="#FF6E6E"></path>
                    </g>
                </g>
            </g>
        </g>
    </g>
</svg>