<?xml version="1.0" encoding="UTF-8"?>
<svg width="40px" height="26px" viewBox="0 0 40 26" version="1.1" xmlns="http://www.w3.org/2000/svg" xmlns:xlink="http://www.w3.org/1999/xlink">
    <!-- Generator: Sketch 50.2 (55047) - http://www.bohemiancoding.com/sketch -->
    <title>cloud-tools</title>
    <desc>Created with Sketch.</desc>
    <defs></defs>
    <g id="Vivid.JS" stroke="none" stroke-width="1" fill="none" fill-rule="evenodd">
        <g id="Vivid-Icons" transform="translate(-353.000000, -180.000000)">
            <g id="Icons" transform="translate(37.000000, 169.000000)">
                <g id="cloud-tools" transform="translate(312.000000, 0.000000)">
                    <g transform="translate(3.000000, 11.000000)" id="Shape">
                        <path d="M34.22,26 L10.492,26 C5.15499117,25.9025641 0.906373637,21.499077 1,16.162 C1,10.729 4.758,7 10,7 C10.9980963,6.91273629 12.0019037,6.91273629 13,7 C14.607,3.118 18.022,0 22.356,0 C28.16,0 33,3.985 33,10 C33,10.411 33.043,11.6 33,12 C33.3313885,11.9490768 33.6686115,11.9490768 34,12 C37.8451296,12.024898 40.9602424,15.1279953 41,18.973 C41.0668755,22.7851738 38.0321265,25.9304808 34.22,26 Z" fill="#FF6E6E"></path>
                        <path d="M5.809,24.713 L18.223,12.223 L21.9,15.9 L11.853,26 L10.492,26 C8.84378801,25.9990384 7.22621458,25.5544906 5.809,24.713 Z" fill="#0C0058"></path>
                        <path d="M29.427,8.171 C30.5746021,10.8078224 30.0033359,13.8775369 27.984,15.925 C26.3094317,17.6173576 23.8779413,18.3219071 21.558,17.787 C18.560282,16.8940386 16.4199916,14.2499635 16.171,11.132 C16.1170666,9.22934146 16.8423796,7.38716205 18.179,6.032 C20.18916,3.99829846 23.2471315,3.4187844 25.862,4.576 L20.853,9.631 L24.419,13.231 L29.427,8.171 Z" fill="#FFFFFF"></path>
                    </g>
                </g>
            </g>
        </g>
    </g>
</svg>