<?xml version="1.0" encoding="UTF-8"?>
<svg width="45px" height="23px" viewBox="0 0 45 23" version="1.1" xmlns="http://www.w3.org/2000/svg" xmlns:xlink="http://www.w3.org/1999/xlink">
    <!-- Generator: Sketch 50.2 (55047) - http://www.bohemiancoding.com/sketch -->
    <title>controller</title>
    <desc>Created with Sketch.</desc>
    <defs></defs>
    <g id="Vivid.JS" stroke="none" stroke-width="1" fill="none" fill-rule="evenodd">
        <g id="Vivid-Icons" transform="translate(-195.000000, -182.000000)">
            <g id="Icons" transform="translate(37.000000, 169.000000)">
                <g id="controller" transform="translate(156.000000, 0.000000)">
                    <g transform="translate(1.000000, 13.000000)" id="Shape">
                        <path d="M34.55,23 C29.4078993,22.9870933 25.037974,19.2382935 24.243,14.158 L21.757,14.158 C20.8494646,19.6320439 15.8215777,23.4421057 10.3060894,22.8353384 C4.7906011,22.2285712 0.711236358,17.4166068 1.01541884,11.8761871 C1.31960132,6.33576743 5.90123644,1.99931298 11.45,2 L34.55,2 C40.3489899,2 45.05,6.70101013 45.05,12.5 C45.05,18.2989899 40.3489899,23 34.55,23 Z" fill="#FF6E6E"></path>
                        <path d="M16,0 L30,0 L30,2 L16,2 L16,0 Z M16,14 L13,14 L13,17 L10,17 L10,14 L7,14 L7,11 L10,11 L10,8 L13,8 L13,11 L16,11 L16,14 Z M35,5 C36.1045695,5 37,5.8954305 37,7 C37,8.1045695 36.1045695,9 35,9 C33.8954305,9 33,8.1045695 33,7 C33,5.8954305 33.8954305,5 35,5 Z M35,15 C36.1045695,15 37,15.8954305 37,17 C37,18.1045695 36.1045695,19 35,19 C33.8954305,19 33,18.1045695 33,17 C33,15.8954305 33.8954305,15 35,15 Z M40,10 C41.1045695,10 42,10.8954305 42,12 C42,13.1045695 41.1045695,14 40,14 C38.8954305,14 38,13.1045695 38,12 C38,10.8954305 38.8954305,10 40,10 Z M30,10 C31.1045695,10 32,10.8954305 32,12 C32,13.1045695 31.1045695,14 30,14 C28.8954305,14 28,13.1045695 28,12 C28,10.8954305 28.8954305,10 30,10 Z" fill="#0C0058"></path>
                    </g>
                </g>
            </g>
        </g>
    </g>
</svg>