<?xml version="1.0" encoding="UTF-8"?>
<svg width="34px" height="34px" viewBox="0 0 34 34" version="1.1" xmlns="http://www.w3.org/2000/svg" xmlns:xlink="http://www.w3.org/1999/xlink">
    <!-- Generator: Sketch 50.2 (55047) - http://www.bohemiancoding.com/sketch -->
    <title>cookie</title>
    <desc>Created with Sketch.</desc>
    <defs></defs>
    <g id="Vivid.JS" stroke="none" stroke-width="1" fill="none" fill-rule="evenodd">
        <g id="Vivid-Icons" transform="translate(-278.000000, -410.000000)">
            <g id="Icons" transform="translate(37.000000, 169.000000)">
                <g id="cookie" transform="translate(234.000000, 234.000000)">
                    <g transform="translate(7.000000, 6.000000)" id="Shape">
                        <path d="M34,22.6 C32.1036009,28.4177867 27.3779881,32.8713317 21.4580956,34.4198291 C15.538203,35.9683266 9.23717638,34.3990777 4.735,30.255 C0.638389033,25.7733139 -0.935053335,19.5345617 0.546163404,13.6461214 C2.02738014,7.75768114 6.36544117,3.0059472 12.095,0.996 C12.4684786,1.82900487 13.0480418,2.55311476 13.779,3.1 C14.0840928,3.50289497 14.4404316,3.86427634 14.839,4.175 C14.415,5.28 13.196,9.07 15.739,10.545 C16.273,11.503 17.355,12.205 19.352,12.245 C19.372,13.626 19.677,15.874 21.321,16.869 C22.246,18.351 24.132,19.234 27.921,17.62 C28.1194587,19.0469138 28.8649898,20.3407454 30,21.228 C30.821769,22.5978344 32.5104491,23.1770516 34,22.6 Z" fill="#FF6E6E"></path>
                        <path d="M6.5,19 C7.32842712,19 8,19.6715729 8,20.5 C8,21.3284271 7.32842712,22 6.5,22 C5.67157288,22 5,21.3284271 5,20.5 C5,19.6715729 5.67157288,19 6.5,19 Z M15.5,28 C16.3284271,28 17,28.6715729 17,29.5 C17,30.3284271 16.3284271,31 15.5,31 C14.6715729,31 14,30.3284271 14,29.5 C14,28.6715729 14.6715729,28 15.5,28 Z M15.5,18 C16.3284271,18 17,18.6715729 17,19.5 C17,20.3284271 16.3284271,21 15.5,21 C14.6715729,21 14,20.3284271 14,19.5 C14,18.6715729 14.6715729,18 15.5,18 Z M9.5,8 C10.3284271,8 11,8.67157288 11,9.5 C11,10.3284271 10.3284271,11 9.5,11 C8.67157288,11 8,10.3284271 8,9.5 C8,8.67157288 8.67157288,8 9.5,8 Z M26.5,23 C27.3284271,23 28,23.6715729 28,24.5 C28,25.3284271 27.3284271,26 26.5,26 C25.6715729,26 25,25.3284271 25,24.5 C25,23.6715729 25.6715729,23 26.5,23 Z" fill="#0C0058"></path>
                    </g>
                </g>
            </g>
        </g>
    </g>
</svg>