<?xml version="1.0" encoding="UTF-8"?>
<svg width="28px" height="34px" viewBox="0 0 28 34" version="1.1" xmlns="http://www.w3.org/2000/svg" xmlns:xlink="http://www.w3.org/1999/xlink">
    <!-- Generator: Sketch 50.2 (55047) - http://www.bohemiancoding.com/sketch -->
    <title>cup</title>
    <desc>Created with Sketch.</desc>
    <defs></defs>
    <g id="Vivid.JS" stroke="none" stroke-width="1" fill="none" fill-rule="evenodd">
        <g id="Vivid-Icons" transform="translate(-203.000000, -644.000000)">
            <g id="Icons" transform="translate(37.000000, 169.000000)">
                <g id="cup" transform="translate(156.000000, 468.000000)">
                    <g transform="translate(10.000000, 7.000000)" id="Shape">
                        <polygon fill="#FF6E6E" points="25 4 22 34 6 34 3 4 0 4 5 0 23 0 28 4"></polygon>
                        <path d="M3,4 L25,4 L24.7,7 L3.3,7 L3,4 Z M14,14 C16.209139,14 18,15.790861 18,18 C18,20.209139 16.209139,22 14,22 C11.790861,22 10,20.209139 10,18 C10,15.790861 11.790861,14 14,14 Z" fill="#0C0058"></path>
                    </g>
                </g>
            </g>
        </g>
    </g>
</svg>