<?xml version="1.0" encoding="UTF-8"?>
<svg width="32px" height="30px" viewBox="0 0 32 30" version="1.1" xmlns="http://www.w3.org/2000/svg" xmlns:xlink="http://www.w3.org/1999/xlink">
    <!-- Generator: Sketch 50.2 (55047) - http://www.bohemiancoding.com/sketch -->
    <title>equaliser</title>
    <desc>Created with Sketch.</desc>
    <defs></defs>
    <g id="Vivid.JS" stroke="none" stroke-width="1" fill="none" fill-rule="evenodd">
        <g id="Vivid-Icons" transform="translate(-45.000000, -568.000000)">
            <g id="Icons" transform="translate(37.000000, 169.000000)">
                <g id="equaliser" transform="translate(0.000000, 390.000000)">
                    <g transform="translate(8.000000, 9.000000)" id="Shape">
                        <path d="M0,27 L0,23 L32,23 L32,27 L0,27 Z M0,13 L32,13 L32,17 L0,17 L0,13 Z M0,3 L32,3 L32,7 L0,7 L0,3 Z" fill="#FF6E6E"></path>
                        <path d="M22,20 C19.2385763,20 17,17.7614237 17,15 C17,12.2385763 19.2385763,10 22,10 C24.7614237,10 27,12.2385763 27,15 C27,17.7614237 24.7614237,20 22,20 Z M11,10 C8.23857625,10 6,7.76142375 6,5 C6,2.23857625 8.23857625,1.77635684e-15 11,1.77635684e-15 C13.7614237,1.77635684e-15 16,2.23857625 16,5 C16,6.32608245 15.4732158,7.59785201 14.5355339,8.53553391 C13.597852,9.4732158 12.3260824,10 11,10 Z M14,25 C14,27.7614237 11.7614237,30 9,30 C6.23857625,30 4,27.7614237 4,25 C4,22.2385763 6.23857625,20 9,20 C11.7614237,20 14,22.2385763 14,25 Z" fill="#0C0058"></path>
                        <path d="M11,3 C12.1045695,3 13,3.8954305 13,5 C13,6.1045695 12.1045695,7 11,7 C9.8954305,7 9,6.1045695 9,5 C9,3.8954305 9.8954305,3 11,3 Z M22,13 C23.1045695,13 24,13.8954305 24,15 C24,16.1045695 23.1045695,17 22,17 C20.8954305,17 20,16.1045695 20,15 C20,13.8954305 20.8954305,13 22,13 Z M9,23 C10.1045695,23 11,23.8954305 11,25 C11,26.1045695 10.1045695,27 9,27 C7.8954305,27 7,26.1045695 7,25 C7,23.8954305 7.8954305,23 9,23 Z" fill="#FFFFFF"></path>
                    </g>
                </g>
            </g>
        </g>
    </g>
</svg>