<?xml version="1.0" encoding="UTF-8"?>
<svg width="41px" height="29px" viewBox="0 0 41 29" version="1.1" xmlns="http://www.w3.org/2000/svg" xmlns:xlink="http://www.w3.org/1999/xlink">
    <!-- Generator: Sketch 50.2 (55047) - http://www.bohemiancoding.com/sketch -->
    <title>graph-poly</title>
    <desc>Created with Sketch.</desc>
    <defs></defs>
    <g id="Vivid.JS" stroke="none" stroke-width="1" fill="none" fill-rule="evenodd">
        <g id="Vivid-Icons" transform="translate(-665.000000, -179.000000)">
            <g id="Icons" transform="translate(37.000000, 169.000000)">
                <g id="graph-poly" transform="translate(624.000000, 0.000000)">
                    <g transform="translate(4.000000, 9.000000)" id="Shape">
                        <path d="M32.214,19.786 C33.7414601,22.7311858 32.9916201,26.3441049 30.4182878,28.4381955 C27.8449556,30.532286 24.1550444,30.532286 21.5817122,28.4381955 C19.0083799,26.3441049 18.2585399,22.7311858 19.786,19.786 L14.766,14.766 C12.8497532,15.2767276 10.8064963,14.9414034 9.154,13.845 L3,20 L0,17 L6.477,10.523 C5.24686903,7.3491697 6.478152,3.75050715 9.39469814,1.9954631 C12.3112443,0.240419051 16.0675144,0.837800261 18.2957085,3.41104188 C20.5239025,5.98428349 20.5780421,9.78737418 18.424,12.423 L22.787,16.786 C24.8015564,15.7381498 27.2004436,15.7381498 29.215,16.786 L38,8 L41,11 L32.214,19.786 Z" fill="#FF6E6E"></path>
                        <path d="M13,5 C14.6568542,5 16,6.34314575 16,8 C16,9.65685425 14.6568542,11 13,11 C11.3431458,11 10,9.65685425 10,8 C10,6.34314575 11.3431458,5 13,5 Z M26,20 C27.6568542,20 29,21.3431458 29,23 C29,24.6568542 27.6568542,26 26,26 C24.3431458,26 23,24.6568542 23,23 C23,21.3431458 24.3431458,20 26,20 Z" fill="#0C0058"></path>
                    </g>
                </g>
            </g>
        </g>
    </g>
</svg>