<?xml version="1.0" encoding="UTF-8"?>
<svg width="28px" height="38px" viewBox="0 0 28 38" version="1.1" xmlns="http://www.w3.org/2000/svg" xmlns:xlink="http://www.w3.org/1999/xlink">
    <!-- Generator: Sketch 50.2 (55047) - http://www.bohemiancoding.com/sketch -->
    <title>hourglass</title>
    <desc>Created with Sketch.</desc>
    <defs></defs>
    <g id="Vivid.JS" stroke="none" stroke-width="1" fill="none" fill-rule="evenodd">
        <g id="Vivid-Icons" transform="translate(-905.000000, -564.000000)">
            <g id="Icons" transform="translate(37.000000, 169.000000)">
                <g id="hourglass" transform="translate(858.000000, 390.000000)">
                    <g transform="translate(10.000000, 5.000000)" id="Shape">
                        <path d="M25.79,30.83 L25.79,35.007 L28,35.007 L28,38 L0,38 L0,35.007 L2.211,35.007 L2.211,30.83 C2.211,30.83 4.138,21.473 12,20 L12,18 C4.137,16.527 2.211,7.17 2.211,7.17 L2.211,2.993 L0,2.993 L0,0 L28,0 L28,2.993 L25.79,2.993 L25.79,7.17 C25.79,7.17 23.863,16.527 16,18 L16,20 C23.863,21.473 25.79,30.83 25.79,30.83 Z" fill="#FF6E6E"></path>
                        <path d="M2.211,35 L2.211,32 L25.79,32 L25.79,35 L2.211,35 Z M2.211,6 L2.211,3 L25.79,3 L25.79,6 L2.211,6 Z" fill="#0C0058"></path>
                    </g>
                </g>
            </g>
        </g>
    </g>
</svg>