<?xml version="1.0" encoding="UTF-8"?>
<svg width="26px" height="36px" viewBox="0 0 26 36" version="1.1" xmlns="http://www.w3.org/2000/svg" xmlns:xlink="http://www.w3.org/1999/xlink">
    <!-- Generator: Sketch 50.2 (55047) - http://www.bohemiancoding.com/sketch -->
    <title>lock</title>
    <desc>Created with Sketch.</desc>
    <defs></defs>
    <g id="Vivid.JS" stroke="none" stroke-width="1" fill="none" fill-rule="evenodd">
        <g id="Vivid-Icons" transform="translate(-672.000000, -643.000000)">
            <g id="Icons" transform="translate(37.000000, 169.000000)">
                <g id="lock" transform="translate(624.000000, 468.000000)">
                    <g transform="translate(11.000000, 6.000000)">
                        <rect id="Rectangle-path" fill="#FF6E6E" fill-rule="nonzero" x="0" y="13" width="26" height="23"></rect>
                        <path d="M20,13 L20,10 C19.8887963,6.18101706 16.8189829,3.11120372 13,3 C9.416,3 6,6.863 6,10 L6,13 L3,13 L3,10 C3.03707356,4.49258197 7.49258197,0.0370735622 13,0 C19.188,0 23,5.656 23,10 L23,13 L20,13 Z M0,34 L26,34 L26,36 L0,36 L0,34 Z M13,19 C15.209139,19 17,20.790861 17,23 C17,25.209139 15.209139,27 13,27 C10.790861,27 9,25.209139 9,23 C9,20.790861 10.790861,19 13,19 Z M11,23 L15,23 L15,31 L11,31 L11,23 Z" id="Shape" fill="#0C0058"></path>
                    </g>
                </g>
            </g>
        </g>
    </g>
</svg>