<?xml version="1.0" encoding="UTF-8"?>
<svg width="29px" height="29px" viewBox="0 0 29 29" version="1.1" xmlns="http://www.w3.org/2000/svg" xmlns:xlink="http://www.w3.org/1999/xlink">
    <!-- Generator: Sketch 50.2 (55047) - http://www.bohemiancoding.com/sketch -->
    <title>move</title>
    <desc>Created with Sketch.</desc>
    <defs></defs>
    <g id="Vivid.JS" stroke="none" stroke-width="1" fill="none" fill-rule="evenodd">
        <g id="Vivid-Icons" transform="translate(-359.000000, -647.000000)">
            <g id="Icons" transform="translate(37.000000, 169.000000)">
                <g id="move" transform="translate(312.000000, 468.000000)">
                    <g transform="translate(10.000000, 10.000000)" id="Shape">
                        <polygon fill="#FF6E6E" points="24 20 22 18 24 16 16 16 16 24 18 22 20 24 15 29 14 29 9 24 11 22 13 24 13 16 5 16 7 18 5 20 0 15 0 14 5 9 7 11 5 13 13 13 13 5 11 7 9 5 14 0 15 0 20 5 18 7 16 5 16 13 24 13 22 11 24 9 29 14 29 15"></polygon>
                        <polygon fill="#0C0058" points="9 13 9 16 13 16 13 20 16 20 16 16 20 16 20 13 16 13 16 9 13 9 13 13"></polygon>
                    </g>
                </g>
            </g>
        </g>
    </g>
</svg>