<?xml version="1.0" encoding="UTF-8"?>
<svg width="32px" height="32px" viewBox="0 0 32 32" version="1.1" xmlns="http://www.w3.org/2000/svg" xmlns:xlink="http://www.w3.org/1999/xlink">
    <!-- Generator: Sketch 50.2 (55047) - http://www.bohemiancoding.com/sketch -->
    <title>processor</title>
    <desc>Created with Sketch.</desc>
    <defs></defs>
    <g id="Vivid.JS" stroke="none" stroke-width="1" fill="none" fill-rule="evenodd">
        <g id="Vivid-Icons" transform="translate(-591.000000, -489.000000)">
            <g id="Icons" transform="translate(37.000000, 169.000000)">
                <g id="processor" transform="translate(546.000000, 312.000000)">
                    <g transform="translate(8.000000, 8.000000)">
                        <rect id="Rectangle-path" fill="#FF6E6E" fill-rule="nonzero" x="4" y="4" width="24" height="24"></rect>
                        <path d="M8,8 L24,8 L24,24 L8,24 L8,8 Z M0,8 L4,8 L4,11 L0,11 L0,8 Z M0,14 L4,14 L4,17 L0,17 L0,14 Z M0,20 L4,20 L4,23 L0,23 L0,20 Z M28,8 L32,8 L32,11 L28,11 L28,8 Z M28,14 L32,14 L32,17 L28,17 L28,14 Z M28,20 L32,20 L32,23 L28,23 L28,20 Z M24,0 L24,4 L21,4 L21,0 L24,0 Z M18,0 L18,4 L15,4 L15,0 L18,0 Z M12,0 L12,4 L9,4 L9,0 L12,0 Z M23,28 L23,32 L20,32 L20,28 L23,28 Z M17,28 L17,32 L14,32 L14,28 L17,28 Z M11,28 L11,32 L8,32 L8,28 L11,28 Z" id="Shape" fill="#0C0058"></path>
                    </g>
                </g>
            </g>
        </g>
    </g>
</svg>