<?xml version="1.0" encoding="UTF-8"?>
<svg width="30px" height="36px" viewBox="0 0 30 36" version="1.1" xmlns="http://www.w3.org/2000/svg" xmlns:xlink="http://www.w3.org/1999/xlink">
    <!-- Generator: Sketch 50.2 (55047) - http://www.bohemiancoding.com/sketch -->
    <title>refresh</title>
    <desc>Created with Sketch.</desc>
    <defs></defs>
    <g id="Vivid.JS" stroke="none" stroke-width="1" fill="none" fill-rule="evenodd">
        <g id="Vivid-Icons" transform="translate(-358.000000, -487.000000)">
            <g id="Icons" transform="translate(37.000000, 169.000000)">
                <g id="refresh" transform="translate(312.000000, 312.000000)">
                    <g transform="translate(8.000000, 6.000000)" id="Shape">
                        <path d="M7.518,17.936 C7.49293256,20.210537 8.37251881,22.4018586 9.96323166,24.027829 C11.5539445,25.6537993 13.72546,26.5812058 16,26.606 L16,28.94 L15.056,33.226 C7.07302886,32.6307029 0.92301238,25.9407661 1,17.936 C0.866169026,10.7120146 5.91682031,4.42563728 13,3 L15,3 L15.048,9.323 C10.7154281,9.86608306 7.47749475,13.5697112 7.518,17.936 Z" fill="#0C0058"></path>
                        <path d="M16,33.275 C15.681,33.275 15.37,33.246 15.056,33.226 L16,28.94 L16,26.606 C20.7157508,26.5047031 24.4857636,22.6528386 24.4857636,17.936 C24.4857636,13.2191614 20.7157508,9.36729694 16,9.266 C15.6828215,9.26728475 15.3659742,9.28664949 15.051,9.324 L15,7 C15,7 14.342,2.6 16,2.6 C24.3763343,2.69447062 31.0910815,9.55962816 31,17.936 C31.0927508,26.3135379 24.3775187,33.1805342 16,33.275 Z" fill="#FF6E6E"></path>
                        <polygon fill="#FF6E6E" points="18.005 36 18.005 22 11 29"></polygon>
                        <polygon fill="#0C0058" points="13.989 0 13.989 13 20.013 6.506"></polygon>
                    </g>
                </g>
            </g>
        </g>
    </g>
</svg>