<?xml version="1.0" encoding="UTF-8"?>
<svg width="40px" height="40px" viewBox="0 0 40 40" version="1.1" xmlns="http://www.w3.org/2000/svg" xmlns:xlink="http://www.w3.org/1999/xlink">
    <!-- Generator: Sketch 50.2 (55047) - http://www.bohemiancoding.com/sketch -->
    <title>rocket</title>
    <desc>Created with Sketch.</desc>
    <defs></defs>
    <g id="Vivid.JS" stroke="none" stroke-width="1" fill="none" fill-rule="evenodd">
        <g id="Vivid-Icons" transform="translate(-509.000000, -174.000000)">
            <g id="Icons" transform="translate(37.000000, 169.000000)">
                <g id="rocket" transform="translate(468.000000, 0.000000)">
                    <g transform="translate(4.000000, 4.000000)" id="Shape">
                        <path d="M25.624,40.785 L21.381,29.472 L29.159,21.694 L31.234,30.429 L25.624,40.785 Z M0.168,15.329 L10.525,9.718 L19.26,11.793 L11.482,19.571 L0.168,15.329 Z M1.624,31.991 C3.544,27.062 6.864,29.717 6.864,29.717 L9.086,31.934 L11.286,34.127 C11.286,34.127 13.913,37.407 8.991,39.34 C7.50044275,39.7420004 5.9491741,39.8694091 4.413,39.716 C3.598,39.64 0.876,41.316 0.066,40.938 C-0.324,40.124 1.354,37.401 1.273,36.583 C1.10874117,35.04374 1.2277026,33.4874126 1.624,31.991 Z" fill="#FF6E6E"></path>
                        <path d="M6.7,21.537 C25.323,3.122 39.983,0.986 39.983,0.986 C39.983,0.986 37.823,15.484 19.2,33.9 C19.2,33.9 14.359,39.227 7.82,32.76 C4.54564479,29.8996232 4.05549402,24.9880499 6.7,21.537 Z" fill="#0C0058"></path>
                        <path d="M23.646,17.336 C25.3500493,19.0978885 25.3102607,21.9055182 23.556968,23.6184106 C21.8036754,25.3313029 18.995881,25.3056408 17.274189,23.5609884 C15.552497,21.816336 15.564032,19.0084481 17.3,17.278 C19.0738276,15.55508 21.9039597,15.5809463 23.646,17.336 Z" fill="#FF6E6E"></path>
                    </g>
                </g>
            </g>
        </g>
    </g>
</svg>