<?xml version="1.0" encoding="UTF-8"?>
<svg width="26px" height="35px" viewBox="0 0 26 35" version="1.1" xmlns="http://www.w3.org/2000/svg" xmlns:xlink="http://www.w3.org/1999/xlink">
    <!-- Generator: Sketch 50.2 (55047) - http://www.bohemiancoding.com/sketch -->
    <title>server</title>
    <desc>Created with Sketch.</desc>
    <defs></defs>
    <g id="Vivid.JS" stroke="none" stroke-width="1" fill="none" fill-rule="evenodd">
        <g id="Vivid-Icons" transform="translate(-906.000000, -644.000000)">
            <g id="Icons" transform="translate(37.000000, 169.000000)">
                <g id="server" transform="translate(858.000000, 468.000000)">
                    <g transform="translate(11.000000, 7.000000)" id="Shape">
                        <path d="M0,7 L26,7 L26,14 L0,14 L0,7 Z M0,21 L26,21 L26,28 L0,28 L0,21 Z" fill="#FF6E6E"></path>
                        <path d="M0,0 L26,0 L26,7 L0,7 L0,0 Z M0,14 L26,14 L26,21 L0,21 L0,14 Z M0,28 L26,28 L26,35 L0,35 L0,28 Z" fill="#0C0058"></path>
                        <path d="M3.5,30 C4.32842712,30 5,30.6715729 5,31.5 C5,32.3284271 4.32842712,33 3.5,33 C2.67157288,33 2,32.3284271 2,31.5 C2,30.6715729 2.67157288,30 3.5,30 Z M3.5,23 C4.32842712,23 5,23.6715729 5,24.5 C5,25.3284271 4.32842712,26 3.5,26 C2.67157288,26 2,25.3284271 2,24.5 C2,23.6715729 2.67157288,23 3.5,23 Z M3.5,16 C4.32842712,16 5,16.6715729 5,17.5 C5,18.3284271 4.32842712,19 3.5,19 C2.67157288,19 2,18.3284271 2,17.5 C2,16.6715729 2.67157288,16 3.5,16 Z M3.5,9 C4.32842712,9 5,9.67157288 5,10.5 C5,11.3284271 4.32842712,12 3.5,12 C2.67157288,12 2,11.3284271 2,10.5 C2,9.67157288 2.67157288,9 3.5,9 Z M3.5,2 C4.32842712,2 5,2.67157288 5,3.5 C5,4.32842712 4.32842712,5 3.5,5 C2.67157288,5 2,4.32842712 2,3.5 C2,2.67157288 2.67157288,2 3.5,2 Z" fill="#FFFFFF"></path>
                    </g>
                </g>
            </g>
        </g>
    </g>
</svg>