<?xml version="1.0" encoding="UTF-8"?>
<svg width="30px" height="36px" viewBox="0 0 30 36" version="1.1" xmlns="http://www.w3.org/2000/svg" xmlns:xlink="http://www.w3.org/1999/xlink">
    <!-- Generator: Sketch 50.2 (55047) - http://www.bohemiancoding.com/sketch -->
    <title>share</title>
    <desc>Created with Sketch.</desc>
    <defs></defs>
    <g id="Vivid.JS" stroke="none" stroke-width="1" fill="none" fill-rule="evenodd">
        <g id="Vivid-Icons" transform="translate(-202.000000, -565.000000)">
            <g id="Icons" transform="translate(37.000000, 169.000000)">
                <g id="share" transform="translate(156.000000, 390.000000)">
                    <g transform="translate(9.000000, 6.000000)" id="Shape">
                        <path d="M20.954,9.211 L7.818,16.76 L5.752,14.19 L18.889,6.641 L20.954,9.211 Z M20.86,26.772 L7.632,18.72 L5.551,21.528 L18.78,29.58 L20.86,26.772 Z" fill="#0C0058" fill-rule="nonzero"></path>
                        <path d="M6,12 C9.3137085,12 12,14.6862915 12,18 C12,21.3137085 9.3137085,24 6,24 C2.6862915,24 0,21.3137085 0,18 C0,14.6862915 2.6862915,12 6,12 Z M24,0 C27.3137085,0 30,2.6862915 30,6 C30,9.3137085 27.3137085,12 24,12 C20.6862915,12 18,9.3137085 18,6 C18,2.6862915 20.6862915,0 24,0 Z M24,24 C27.3137085,24 30,26.6862915 30,30 C30,33.3137085 27.3137085,36 24,36 C20.6862915,36 18,33.3137085 18,30 C18,26.6862915 20.6862915,24 24,24 Z" fill="#FF6E6E" fill-rule="nonzero"></path>
                    </g>
                </g>
            </g>
        </g>
    </g>
</svg>