<?xml version="1.0" encoding="UTF-8"?>
<svg width="38px" height="34px" viewBox="0 0 38 34" version="1.1" xmlns="http://www.w3.org/2000/svg" xmlns:xlink="http://www.w3.org/1999/xlink">
    <!-- Generator: Sketch 50.2 (55047) - http://www.bohemiancoding.com/sketch -->
    <title>shop</title>
    <desc>Created with Sketch.</desc>
    <defs></defs>
    <g id="Vivid.JS" stroke="none" stroke-width="1" fill="none" fill-rule="evenodd">
        <g id="Vivid-Icons" transform="translate(-354.000000, -254.000000)">
            <g id="Icons" transform="translate(37.000000, 169.000000)">
                <g id="shop" transform="translate(312.000000, 78.000000)">
                    <g transform="translate(5.000000, 7.000000)" id="Shape">
                        <polygon fill="#FF6E6E" points="36 4 36 34 2 34 2 4 0 4 0 0 38 0 38 4"></polygon>
                        <path d="M33.5,11 C29.2,11 29,6 29,6 C29,8.76142375 26.7614237,11 24,11 C21.2385763,11 19,8.76142375 19,6 C19,8.76142375 16.7614237,11 14,11 C11.2385763,11 9,8.76142375 9,6 C9,6 8.8,11 4.5,11 C3.3065258,11 2.16193319,10.5258942 1.31801948,9.68198052 C0.474105782,8.83806681 0,7.6934742 0,6.5 L0,4 L38,4 L38,6.5 C38,8.98528137 35.9852814,11 33.5,11 Z M17.01,28.01 L8.01,28.01 L8.01,18.99 L17.01,18.99 L17.01,28.01 Z M29.993,34 L21.993,34 L21.993,18.99 L29.993,18.99 L29.993,34 Z" fill="#0C0058"></path>
                    </g>
                </g>
            </g>
        </g>
    </g>
</svg>